<?xml version="1.0" standalone="no"?>
<!DOCTYPE svg PUBLIC "-//W3C//DTD SVG 20010904//EN"
 "http://www.w3.org/TR/2001/REC-SVG-20010904/DTD/svg10.dtd">
<svg version="1.0" xmlns="http://www.w3.org/2000/svg"
 width="400.000000pt" height="400.000000pt" viewBox="0 0 400.000000 400.000000"
 preserveAspectRatio="xMidYMid meet">
<metadata>
Created by potrace 1.14, written by Peter Selinger 2001-2017
</metadata>
<g transform="translate(0.000000,400.000000) scale(0.100000,-0.100000)"
fill="#000000" stroke="none">
<path d="M1936 3852 c-4 -4 -22 -7 -39 -7 -18 -1 -37 -4 -44 -8 -6 -4 -15 -3
-18 3 -5 8 -11 8 -20 0 -7 -6 -40 -12 -73 -13 -33 -1 -58 -5 -55 -9 2 -5 -6
-9 -19 -9 -42 -3 -63 -7 -93 -19 -16 -6 -32 -11 -35 -11 -14 1 -59 -12 -88
-26 -18 -8 -40 -12 -48 -9 -8 3 -13 2 -10 -3 3 -5 -6 -12 -22 -16 -15 -3 -55
-20 -90 -36 -34 -17 -67 -27 -74 -23 -6 4 -8 3 -5 -3 4 -5 -6 -16 -21 -24 -15
-7 -39 -21 -54 -31 -14 -10 -33 -18 -41 -18 -8 0 -17 -7 -21 -15 -3 -8 -10
-15 -17 -15 -6 0 -25 -11 -41 -25 -16 -14 -35 -22 -41 -18 -7 3 -9 3 -5 -2 10
-11 -39 -48 -53 -39 -7 4 -9 3 -6 -3 8 -13 -41 -56 -54 -48 -5 4 -8 3 -7 -2 2
-5 -37 -49 -87 -99 -87 -87 -165 -172 -165 -180 0 -2 -20 -30 -45 -63 -25 -32
-45 -63 -45 -67 0 -4 -6 -15 -14 -23 -16 -18 -112 -204 -138 -266 -9 -22 -28
-78 -43 -125 -15 -47 -30 -92 -33 -100 -3 -8 -4 -19 -3 -24 1 -4 -3 -14 -10
-22 -6 -7 -8 -17 -5 -23 3 -5 2 -21 -4 -36 -9 -25 -14 -56 -27 -170 -13 -118
-5 -390 13 -475 2 -14 6 -36 8 -50 2 -14 9 -43 15 -65 6 -22 12 -51 15 -65 2
-14 5 -26 7 -27 1 -2 2 -6 3 -10 12 -56 72 -205 123 -307 47 -94 62 -134 56
-150 -4 -11 -8 -23 -8 -26 -1 -3 -5 -13 -9 -22 -4 -9 -9 -22 -10 -30 -7 -36
-41 -128 -48 -128 -4 0 -5 -7 -2 -15 4 -8 2 -21 -3 -28 -5 -6 -16 -32 -23 -57
-7 -25 -16 -49 -19 -55 -3 -5 -6 -12 -6 -15 0 -19 -72 -216 -80 -222 -5 -4 -7
-8 -3 -8 7 0 -18 -96 -30 -115 -4 -5 -7 -16 -8 -23 -2 -8 -6 -21 -10 -30 -4
-9 -8 -19 -9 -22 0 -3 -11 -36 -24 -73 -13 -38 -21 -71 -18 -73 3 -3 15 0 27
6 12 6 28 9 35 6 8 -3 15 -1 17 5 3 9 36 20 73 22 11 1 23 7 28 14 4 6 18 10
32 9 13 -2 23 0 20 4 -2 3 33 17 78 30 45 13 88 28 96 34 12 9 13 8 6 -4 -8
-13 -7 -13 9 0 17 14 31 18 68 22 10 1 18 5 18 9 0 4 17 10 38 15 43 9 41 8
64 18 10 5 29 9 42 10 13 0 22 4 19 9 -2 4 -1 7 4 8 23 2 53 10 79 20 16 7 32
13 37 14 4 2 8 3 10 4 1 2 11 4 22 6 11 2 55 15 98 29 l77 25 68 -35 c37 -18
73 -34 80 -34 6 0 12 -4 12 -10 0 -5 3 -9 8 -8 6 2 70 -19 182 -60 8 -3 24 -7
35 -9 11 -2 31 -7 45 -12 50 -18 176 -39 290 -47 41 -3 80 -10 86 -15 6 -5 14
-6 18 -2 4 4 53 9 109 11 56 2 125 4 152 5 28 1 53 5 56 9 3 5 27 11 54 14 54
6 225 50 267 68 9 4 22 9 30 11 49 11 287 126 334 162 17 12 36 23 42 23 7 0
12 5 12 10 0 6 4 10 10 10 5 0 21 10 36 22 14 13 26 21 27 18 1 -2 19 12 41
32 21 20 45 34 52 31 10 -4 12 0 8 11 -3 9 -2 16 3 16 6 0 29 20 53 44 24 25
48 42 52 40 5 -3 7 0 6 8 -2 7 3 12 10 10 8 -1 11 2 8 7 -4 5 5 18 19 29 13
11 21 22 18 26 -3 3 1 6 11 6 9 0 15 4 12 9 -7 11 39 53 49 44 4 -5 5 -2 1 4
-4 7 -2 18 4 25 44 50 160 230 171 263 3 11 11 19 17 18 6 -2 9 3 6 11 -3 7 1
20 8 27 7 8 14 21 16 28 2 8 10 30 19 50 9 20 17 41 18 47 0 6 6 19 14 28 7 9
11 16 7 16 -4 0 0 14 9 30 9 17 13 30 10 30 -3 0 2 16 10 36 8 20 15 45 15 56
0 10 3 17 8 15 4 -3 8 7 8 21 2 40 12 91 21 105 4 6 6 27 4 45 -1 19 1 32 6
29 4 -3 9 20 9 51 2 116 3 124 17 116 9 -6 9 -5 1 7 -15 18 -14 140 0 132 6
-4 6 0 -1 8 -6 8 -13 46 -14 84 -1 39 -5 74 -7 79 -6 11 -13 71 -15 128 -1 20
-5 34 -9 31 -7 -4 -12 28 -11 65 1 6 -4 12 -9 12 -6 0 -8 13 -6 29 2 17 1 28
-4 25 -7 -5 -12 11 -5 19 1 2 -4 11 -11 20 -8 9 -11 21 -7 27 3 5 1 10 -4 10
-6 0 -11 8 -11 18 0 10 -4 22 -8 27 -5 6 -15 30 -22 55 -8 25 -17 47 -20 50
-9 9 -91 179 -90 186 1 4 -5 11 -14 16 -9 5 -13 15 -9 25 4 10 2 14 -4 10 -10
-6 -22 9 -19 25 0 4 -9 15 -22 23 -12 9 -20 20 -17 25 3 4 -2 11 -11 14 -9 4
-14 9 -11 12 3 3 -3 14 -14 25 -11 11 -17 25 -13 31 4 6 3 8 -3 5 -6 -4 -28
15 -49 41 -49 60 -183 192 -218 215 -15 10 -24 23 -20 29 4 7 3 8 -4 4 -7 -4
-24 6 -40 22 -15 15 -33 27 -40 24 -7 -2 -12 1 -12 7 0 5 -18 20 -40 32 -22
13 -40 27 -40 31 0 5 -4 6 -10 3 -5 -3 -10 -1 -10 4 0 6 -7 11 -15 11 -8 0
-15 4 -15 10 0 5 -6 9 -12 7 -7 -1 -12 4 -10 11 1 8 -2 11 -8 7 -10 -6 -72 23
-78 38 -2 4 -7 5 -12 2 -5 -3 -16 2 -24 11 -9 8 -16 12 -16 9 0 -4 -10 0 -23
8 -13 8 -34 17 -48 19 -13 2 -23 9 -22 15 1 6 -6 9 -17 6 -11 -3 -20 -1 -20 4
0 5 -12 10 -26 11 -14 1 -31 5 -37 9 -7 4 -15 8 -19 9 -5 1 -10 3 -13 4 -9 4
-19 7 -62 15 -24 4 -43 11 -43 14 0 4 -10 7 -22 8 -44 2 -78 7 -78 13 0 3 -24
7 -53 9 -89 6 -96 7 -102 13 -3 3 -19 4 -36 2 -22 -3 -28 0 -23 9 6 9 4 9 -7
2 -15 -11 -158 -13 -176 -2 -5 4 -13 3 -17 -1z"/>
</g>
</svg>
